<mxfile host="app.diagrams.net" modified="2023-10-26T09:43:03.469Z" agent="Mozilla/5.0 (X11; Ubuntu; Linux x86_64; rv:109.0) Gecko/20100101 Firefox/119.0" etag="rxLNVtVqvmRsvE_VSzRc" version="22.0.8" type="google" pages="2">
  <diagram id="C5RBs43oDa-KdzZeNtuy" name="CU_complexe">
    <mxGraphModel grid="1" page="1" gridSize="10" guides="1" tooltips="1" connect="1" arrows="1" fold="1" pageScale="1" pageWidth="827" pageHeight="1169" math="0" shadow="0">
      <root>
        <mxCell id="WIyWlLk6GJQsqaUBKTNV-0" />
        <mxCell id="WIyWlLk6GJQsqaUBKTNV-1" parent="WIyWlLk6GJQsqaUBKTNV-0" />
        <mxCell id="SLpWsWOZ-Yg8wPwdnWfF-1" value="Application" style="swimlane;whiteSpace=wrap;html=1;" vertex="1" parent="WIyWlLk6GJQsqaUBKTNV-1">
          <mxGeometry x="280" y="110" width="500" height="990" as="geometry" />
        </mxCell>
        <mxCell id="YS-Tequ_tSHetrGVFUUf-0" value="Créer concert" style="ellipse;whiteSpace=wrap;html=1;" vertex="1" parent="SLpWsWOZ-Yg8wPwdnWfF-1">
          <mxGeometry x="37" y="475" width="80" height="60" as="geometry" />
        </mxCell>
        <mxCell id="wr5d51Yl4XAAvzai9b7U-3" value="Trouver une salle" style="ellipse;whiteSpace=wrap;html=1;" vertex="1" parent="SLpWsWOZ-Yg8wPwdnWfF-1">
          <mxGeometry x="310" y="475" width="100" height="60" as="geometry" />
        </mxCell>
        <mxCell id="wr5d51Yl4XAAvzai9b7U-4" value="Recueillir les besoins du concert" style="ellipse;whiteSpace=wrap;html=1;" vertex="1" parent="SLpWsWOZ-Yg8wPwdnWfF-1">
          <mxGeometry x="150" y="475" width="100" height="60" as="geometry" />
        </mxCell>
        <mxCell id="maStjif8JChgch9D6SFX-16" style="rounded=0;orthogonalLoop=1;jettySize=auto;html=1;endArrow=none;endFill=0;" edge="1" parent="SLpWsWOZ-Yg8wPwdnWfF-1" source="YS-Tequ_tSHetrGVFUUf-19">
          <mxGeometry relative="1" as="geometry">
            <mxPoint x="723.3333333333334" y="720" as="targetPoint" />
          </mxGeometry>
        </mxCell>
        <mxCell id="YS-Tequ_tSHetrGVFUUf-19" value="Faire l&#39;inventaire des besoins" style="ellipse;whiteSpace=wrap;html=1;" vertex="1" parent="SLpWsWOZ-Yg8wPwdnWfF-1">
          <mxGeometry x="40" y="870" width="100" height="70" as="geometry" />
        </mxCell>
        <mxCell id="wr5d51Yl4XAAvzai9b7U-6" value="Se connecter" style="ellipse;whiteSpace=wrap;html=1;" vertex="1" parent="SLpWsWOZ-Yg8wPwdnWfF-1">
          <mxGeometry x="110" y="560" width="100" height="60" as="geometry" />
        </mxCell>
        <mxCell id="eJs-L2XnjaH23RuSow4--20" value="Editer une liste de matériel à louer" style="ellipse;whiteSpace=wrap;html=1;" vertex="1" parent="SLpWsWOZ-Yg8wPwdnWfF-1">
          <mxGeometry x="210" y="890" width="100" height="60" as="geometry" />
        </mxCell>
        <mxCell id="eJs-L2XnjaH23RuSow4--38" value="" style="endArrow=open;dashed=1;html=1;rounded=0;exitX=1;exitY=0.5;exitDx=0;exitDy=0;entryX=0;entryY=0.5;entryDx=0;entryDy=0;endFill=0;" edge="1" parent="SLpWsWOZ-Yg8wPwdnWfF-1" source="wr5d51Yl4XAAvzai9b7U-4" target="wr5d51Yl4XAAvzai9b7U-3">
          <mxGeometry width="50" height="50" relative="1" as="geometry">
            <mxPoint x="220" y="460" as="sourcePoint" />
            <mxPoint x="270" y="410" as="targetPoint" />
          </mxGeometry>
        </mxCell>
        <mxCell id="eJs-L2XnjaH23RuSow4--40" value="&lt;font style=&quot;font-size: 8px;&quot;&gt;&amp;lt;&amp;lt;includes&amp;gt;&amp;gt;&lt;/font&gt;" style="text;html=1;strokeColor=none;fillColor=none;align=center;verticalAlign=middle;whiteSpace=wrap;rounded=0;" vertex="1" parent="SLpWsWOZ-Yg8wPwdnWfF-1">
          <mxGeometry x="250" y="500" width="60" height="30" as="geometry" />
        </mxCell>
        <mxCell id="eJs-L2XnjaH23RuSow4--43" value="" style="endArrow=none;html=1;rounded=0;exitX=1;exitY=0.5;exitDx=0;exitDy=0;entryX=0;entryY=0.5;entryDx=0;entryDy=0;dashed=1;startArrow=open;startFill=0;" edge="1" parent="SLpWsWOZ-Yg8wPwdnWfF-1" source="YS-Tequ_tSHetrGVFUUf-19" target="eJs-L2XnjaH23RuSow4--20">
          <mxGeometry width="50" height="50" relative="1" as="geometry">
            <mxPoint x="196" y="800" as="sourcePoint" />
            <mxPoint x="246" y="750" as="targetPoint" />
          </mxGeometry>
        </mxCell>
        <mxCell id="eJs-L2XnjaH23RuSow4--58" value="Editer une liste des besoins pour un concert" style="ellipse;whiteSpace=wrap;html=1;" vertex="1" parent="SLpWsWOZ-Yg8wPwdnWfF-1">
          <mxGeometry x="86" y="80" width="100" height="60" as="geometry" />
        </mxCell>
        <mxCell id="EpKC4rCdLdDkAquS_WCu-1" style="rounded=0;orthogonalLoop=1;jettySize=auto;html=1;endArrow=none;endFill=0;exitX=1;exitY=0.5;exitDx=0;exitDy=0;" edge="1" parent="SLpWsWOZ-Yg8wPwdnWfF-1" source="eJs-L2XnjaH23RuSow4--59">
          <mxGeometry relative="1" as="geometry">
            <mxPoint x="720" y="720" as="targetPoint" />
            <mxPoint x="190" y="190" as="sourcePoint" />
          </mxGeometry>
        </mxCell>
        <mxCell id="eJs-L2XnjaH23RuSow4--59" value="Consulter ses formulaires de concert" style="ellipse;whiteSpace=wrap;html=1;" vertex="1" parent="SLpWsWOZ-Yg8wPwdnWfF-1">
          <mxGeometry x="86" y="160" width="100" height="60" as="geometry" />
        </mxCell>
        <mxCell id="eJs-L2XnjaH23RuSow4--61" value="Consulter la fiche Plan Feu" style="ellipse;whiteSpace=wrap;html=1;" vertex="1" parent="SLpWsWOZ-Yg8wPwdnWfF-1">
          <mxGeometry x="27" y="270" width="100" height="60" as="geometry" />
        </mxCell>
        <mxCell id="eJs-L2XnjaH23RuSow4--60" value="Consulter la fiche Rider" style="ellipse;whiteSpace=wrap;html=1;" vertex="1" parent="SLpWsWOZ-Yg8wPwdnWfF-1">
          <mxGeometry x="183" y="270" width="100" height="60" as="geometry" />
        </mxCell>
        <mxCell id="eJs-L2XnjaH23RuSow4--67" value="" style="endArrow=open;dashed=1;html=1;rounded=0;exitX=0.307;exitY=0.054;exitDx=0;exitDy=0;entryX=1;entryY=1;entryDx=0;entryDy=0;endFill=0;exitPerimeter=0;" edge="1" parent="SLpWsWOZ-Yg8wPwdnWfF-1" source="eJs-L2XnjaH23RuSow4--60" target="eJs-L2XnjaH23RuSow4--59">
          <mxGeometry width="50" height="50" relative="1" as="geometry">
            <mxPoint x="175" y="240" as="sourcePoint" />
            <mxPoint x="251" y="220" as="targetPoint" />
          </mxGeometry>
        </mxCell>
        <mxCell id="eJs-L2XnjaH23RuSow4--68" value="&lt;font style=&quot;font-size: 8px;&quot;&gt;&amp;lt;&amp;lt;extends&amp;gt;&amp;gt;&lt;/font&gt;" style="text;html=1;strokeColor=none;fillColor=none;align=center;verticalAlign=middle;whiteSpace=wrap;rounded=0;" vertex="1" parent="SLpWsWOZ-Yg8wPwdnWfF-1">
          <mxGeometry x="144" y="240" width="60" height="30" as="geometry" />
        </mxCell>
        <mxCell id="eJs-L2XnjaH23RuSow4--70" value="" style="endArrow=open;dashed=1;html=1;rounded=0;exitX=0.5;exitY=0;exitDx=0;exitDy=0;entryX=0.286;entryY=0.959;entryDx=0;entryDy=0;endFill=0;entryPerimeter=0;" edge="1" parent="SLpWsWOZ-Yg8wPwdnWfF-1" source="eJs-L2XnjaH23RuSow4--61" target="eJs-L2XnjaH23RuSow4--59">
          <mxGeometry width="50" height="50" relative="1" as="geometry">
            <mxPoint x="71" y="255" as="sourcePoint" />
            <mxPoint x="147" y="235" as="targetPoint" />
          </mxGeometry>
        </mxCell>
        <mxCell id="eJs-L2XnjaH23RuSow4--71" value="&lt;font style=&quot;font-size: 8px;&quot;&gt;&amp;lt;&amp;lt;extends&amp;gt;&amp;gt;&lt;/font&gt;" style="text;html=1;strokeColor=none;fillColor=none;align=center;verticalAlign=middle;whiteSpace=wrap;rounded=0;" vertex="1" parent="SLpWsWOZ-Yg8wPwdnWfF-1">
          <mxGeometry x="87" y="240" width="60" height="30" as="geometry" />
        </mxCell>
        <mxCell id="eJs-L2XnjaH23RuSow4--57" value="Artiste" style="shape=umlActor;verticalLabelPosition=bottom;verticalAlign=top;html=1;outlineConnect=0;" vertex="1" parent="SLpWsWOZ-Yg8wPwdnWfF-1">
          <mxGeometry x="-143" y="150" width="30" height="60" as="geometry" />
        </mxCell>
        <mxCell id="eJs-L2XnjaH23RuSow4--62" value="" style="endArrow=none;html=1;rounded=0;entryX=0;entryY=0.5;entryDx=0;entryDy=0;" edge="1" parent="SLpWsWOZ-Yg8wPwdnWfF-1" target="eJs-L2XnjaH23RuSow4--58">
          <mxGeometry width="50" height="50" relative="1" as="geometry">
            <mxPoint x="-113" y="190" as="sourcePoint" />
            <mxPoint x="67" y="177.5" as="targetPoint" />
          </mxGeometry>
        </mxCell>
        <mxCell id="eJs-L2XnjaH23RuSow4--63" value="" style="endArrow=none;html=1;rounded=0;entryX=0;entryY=0.5;entryDx=0;entryDy=0;" edge="1" parent="SLpWsWOZ-Yg8wPwdnWfF-1" target="eJs-L2XnjaH23RuSow4--59">
          <mxGeometry width="50" height="50" relative="1" as="geometry">
            <mxPoint x="-113" y="190" as="sourcePoint" />
            <mxPoint x="77" y="15" as="targetPoint" />
          </mxGeometry>
        </mxCell>
        <mxCell id="CU6-SkCd78zjXDENYMAe-0" value="Renvoyer le formulaire" style="ellipse;whiteSpace=wrap;html=1;" vertex="1" parent="SLpWsWOZ-Yg8wPwdnWfF-1">
          <mxGeometry x="246" y="80" width="100" height="60" as="geometry" />
        </mxCell>
        <mxCell id="YLnWWPRhelkXHmFUMjlO-0" value="Envoyer le formulaire" style="ellipse;whiteSpace=wrap;html=1;" vertex="1" parent="SLpWsWOZ-Yg8wPwdnWfF-1">
          <mxGeometry x="87" y="380" width="106" height="50" as="geometry" />
        </mxCell>
        <mxCell id="YS-Tequ_tSHetrGVFUUf-3" value="Gérer fiches" style="ellipse;whiteSpace=wrap;html=1;" vertex="1" parent="SLpWsWOZ-Yg8wPwdnWfF-1">
          <mxGeometry x="71" y="680" width="106" height="50" as="geometry" />
        </mxCell>
        <mxCell id="maStjif8JChgch9D6SFX-9" style="rounded=0;orthogonalLoop=1;jettySize=auto;html=1;exitX=1;exitY=0.5;exitDx=0;exitDy=0;endArrow=none;endFill=0;" edge="1" parent="SLpWsWOZ-Yg8wPwdnWfF-1" source="bsUH4eUVU3nkwlBXj7Sr-1">
          <mxGeometry relative="1" as="geometry">
            <mxPoint x="720" y="720" as="targetPoint" />
          </mxGeometry>
        </mxCell>
        <mxCell id="maStjif8JChgch9D6SFX-12" style="rounded=0;orthogonalLoop=1;jettySize=auto;html=1;entryX=0;entryY=0.5;entryDx=0;entryDy=0;dashed=1;endArrow=open;endFill=0;" edge="1" parent="SLpWsWOZ-Yg8wPwdnWfF-1" source="YS-Tequ_tSHetrGVFUUf-8" target="bsUH4eUVU3nkwlBXj7Sr-1">
          <mxGeometry relative="1" as="geometry" />
        </mxCell>
        <mxCell id="YS-Tequ_tSHetrGVFUUf-8" value="Fiche Plan feu" style="ellipse;whiteSpace=wrap;html=1;" vertex="1" parent="SLpWsWOZ-Yg8wPwdnWfF-1">
          <mxGeometry x="227" y="760" width="100" height="40" as="geometry" />
        </mxCell>
        <mxCell id="bsUH4eUVU3nkwlBXj7Sr-24" value="" style="endArrow=block;endSize=16;endFill=0;html=1;rounded=0;exitX=0;exitY=0;exitDx=0;exitDy=0;entryX=1;entryY=1;entryDx=0;entryDy=0;" edge="1" parent="SLpWsWOZ-Yg8wPwdnWfF-1" source="YS-Tequ_tSHetrGVFUUf-8" target="YS-Tequ_tSHetrGVFUUf-3">
          <mxGeometry x="-0.0597" y="31" width="160" relative="1" as="geometry">
            <mxPoint x="218" y="802" as="sourcePoint" />
            <mxPoint x="187" y="730" as="targetPoint" />
            <mxPoint as="offset" />
          </mxGeometry>
        </mxCell>
        <mxCell id="YS-Tequ_tSHetrGVFUUf-6" value="Fiche Accueil" style="ellipse;whiteSpace=wrap;html=1;" vertex="1" parent="SLpWsWOZ-Yg8wPwdnWfF-1">
          <mxGeometry x="227" y="660" width="106" height="40" as="geometry" />
        </mxCell>
        <mxCell id="bsUH4eUVU3nkwlBXj7Sr-25" value="" style="endArrow=block;endSize=16;endFill=0;html=1;rounded=0;exitX=0;exitY=0.5;exitDx=0;exitDy=0;entryX=1;entryY=0;entryDx=0;entryDy=0;" edge="1" parent="SLpWsWOZ-Yg8wPwdnWfF-1" source="YS-Tequ_tSHetrGVFUUf-6" target="YS-Tequ_tSHetrGVFUUf-3">
          <mxGeometry x="-0.0597" y="31" width="160" relative="1" as="geometry">
            <mxPoint x="185" y="822" as="sourcePoint" />
            <mxPoint x="154" y="750" as="targetPoint" />
            <mxPoint as="offset" />
          </mxGeometry>
        </mxCell>
        <mxCell id="maStjif8JChgch9D6SFX-11" style="rounded=0;orthogonalLoop=1;jettySize=auto;html=1;exitX=1;exitY=0.5;exitDx=0;exitDy=0;entryX=0;entryY=0.5;entryDx=0;entryDy=0;dashed=1;endArrow=open;endFill=0;" edge="1" parent="SLpWsWOZ-Yg8wPwdnWfF-1" source="YS-Tequ_tSHetrGVFUUf-7" target="bsUH4eUVU3nkwlBXj7Sr-1">
          <mxGeometry relative="1" as="geometry" />
        </mxCell>
        <mxCell id="YS-Tequ_tSHetrGVFUUf-7" value="Fiche Rider" style="ellipse;whiteSpace=wrap;html=1;" vertex="1" parent="SLpWsWOZ-Yg8wPwdnWfF-1">
          <mxGeometry x="231" y="710" width="102" height="40" as="geometry" />
        </mxCell>
        <mxCell id="bsUH4eUVU3nkwlBXj7Sr-6" value="" style="endArrow=block;endSize=16;endFill=0;html=1;rounded=0;exitX=0;exitY=0.5;exitDx=0;exitDy=0;entryX=1;entryY=0.5;entryDx=0;entryDy=0;" edge="1" parent="SLpWsWOZ-Yg8wPwdnWfF-1" source="YS-Tequ_tSHetrGVFUUf-7" target="YS-Tequ_tSHetrGVFUUf-3">
          <mxGeometry x="-0.0597" y="31" width="160" relative="1" as="geometry">
            <mxPoint x="277" y="880" as="sourcePoint" />
            <mxPoint x="135.5" y="730" as="targetPoint" />
            <mxPoint as="offset" />
          </mxGeometry>
        </mxCell>
        <mxCell id="maStjif8JChgch9D6SFX-0" value="" style="endArrow=open;dashed=1;html=1;rounded=0;exitX=1;exitY=0.5;exitDx=0;exitDy=0;entryX=0;entryY=0.5;entryDx=0;entryDy=0;endFill=0;" edge="1" parent="SLpWsWOZ-Yg8wPwdnWfF-1" source="eJs-L2XnjaH23RuSow4--58" target="CU6-SkCd78zjXDENYMAe-0">
          <mxGeometry width="50" height="50" relative="1" as="geometry">
            <mxPoint x="186" y="115" as="sourcePoint" />
            <mxPoint x="246" y="115" as="targetPoint" />
          </mxGeometry>
        </mxCell>
        <mxCell id="maStjif8JChgch9D6SFX-1" value="&lt;font style=&quot;font-size: 8px;&quot;&gt;&amp;lt;&amp;lt;includes&amp;gt;&amp;gt;&lt;/font&gt;" style="text;html=1;strokeColor=none;fillColor=none;align=center;verticalAlign=middle;whiteSpace=wrap;rounded=0;" vertex="1" parent="SLpWsWOZ-Yg8wPwdnWfF-1">
          <mxGeometry x="186" y="110" width="60" height="30" as="geometry" />
        </mxCell>
        <mxCell id="maStjif8JChgch9D6SFX-5" value="" style="endArrow=open;dashed=1;html=1;rounded=0;exitX=1;exitY=0.5;exitDx=0;exitDy=0;entryX=0;entryY=0.5;entryDx=0;entryDy=0;endFill=0;" edge="1" parent="SLpWsWOZ-Yg8wPwdnWfF-1" target="wr5d51Yl4XAAvzai9b7U-4">
          <mxGeometry width="50" height="50" relative="1" as="geometry">
            <mxPoint x="117" y="505" as="sourcePoint" />
            <mxPoint x="177" y="505" as="targetPoint" />
          </mxGeometry>
        </mxCell>
        <mxCell id="maStjif8JChgch9D6SFX-6" value="&lt;font style=&quot;font-size: 8px;&quot;&gt;&amp;lt;&amp;lt;includes&amp;gt;&amp;gt;&lt;/font&gt;" style="text;html=1;strokeColor=none;fillColor=none;align=center;verticalAlign=middle;whiteSpace=wrap;rounded=0;" vertex="1" parent="SLpWsWOZ-Yg8wPwdnWfF-1">
          <mxGeometry x="106" y="505" width="60" height="30" as="geometry" />
        </mxCell>
        <mxCell id="bsUH4eUVU3nkwlBXj7Sr-1" value="Renvoyer les informations" style="ellipse;whiteSpace=wrap;html=1;" vertex="1" parent="SLpWsWOZ-Yg8wPwdnWfF-1">
          <mxGeometry x="380" y="700" width="110" height="50" as="geometry" />
        </mxCell>
        <mxCell id="maStjif8JChgch9D6SFX-10" value="" style="endArrow=open;dashed=1;html=1;rounded=0;exitX=1;exitY=0;exitDx=0;exitDy=0;entryX=0;entryY=0.5;entryDx=0;entryDy=0;endFill=0;" edge="1" parent="SLpWsWOZ-Yg8wPwdnWfF-1" target="bsUH4eUVU3nkwlBXj7Sr-1">
          <mxGeometry width="50" height="50" relative="1" as="geometry">
            <mxPoint x="332.99623948087356" y="679.9999481226199" as="sourcePoint" />
            <mxPoint x="421.44000000000005" y="647.64" as="targetPoint" />
          </mxGeometry>
        </mxCell>
        <mxCell id="maStjif8JChgch9D6SFX-8" value="&lt;font style=&quot;font-size: 8px;&quot;&gt;&amp;lt;&amp;lt;includes&amp;gt;&amp;gt;&lt;/font&gt;" style="text;html=1;strokeColor=none;fillColor=none;align=center;verticalAlign=middle;whiteSpace=wrap;rounded=0;" vertex="1" parent="SLpWsWOZ-Yg8wPwdnWfF-1">
          <mxGeometry x="346" y="670" width="60" height="30" as="geometry" />
        </mxCell>
        <mxCell id="maStjif8JChgch9D6SFX-13" value="&lt;font style=&quot;font-size: 8px;&quot;&gt;&amp;lt;&amp;lt;includes&amp;gt;&amp;gt;&lt;/font&gt;" style="text;html=1;strokeColor=none;fillColor=none;align=center;verticalAlign=middle;whiteSpace=wrap;rounded=0;" vertex="1" parent="SLpWsWOZ-Yg8wPwdnWfF-1">
          <mxGeometry x="310" y="700" width="60" height="30" as="geometry" />
        </mxCell>
        <mxCell id="maStjif8JChgch9D6SFX-14" value="&lt;font style=&quot;font-size: 8px;&quot;&gt;&amp;lt;&amp;lt;includes&amp;gt;&amp;gt;&lt;/font&gt;" style="text;html=1;strokeColor=none;fillColor=none;align=center;verticalAlign=middle;whiteSpace=wrap;rounded=0;" vertex="1" parent="SLpWsWOZ-Yg8wPwdnWfF-1">
          <mxGeometry x="330" y="740" width="60" height="30" as="geometry" />
        </mxCell>
        <mxCell id="maStjif8JChgch9D6SFX-15" value="&lt;font style=&quot;font-size: 8px;&quot;&gt;&amp;lt;&amp;lt;extends&amp;gt;&amp;gt;&lt;/font&gt;" style="text;html=1;strokeColor=none;fillColor=none;align=center;verticalAlign=middle;whiteSpace=wrap;rounded=0;" vertex="1" parent="SLpWsWOZ-Yg8wPwdnWfF-1">
          <mxGeometry x="140" y="920" width="60" height="30" as="geometry" />
        </mxCell>
        <mxCell id="SLpWsWOZ-Yg8wPwdnWfF-2" value="&lt;div&gt;Association&lt;/div&gt;bien-être" style="shape=umlActor;verticalLabelPosition=bottom;verticalAlign=top;html=1;outlineConnect=0;" vertex="1" parent="WIyWlLk6GJQsqaUBKTNV-1">
          <mxGeometry x="100" y="620" width="30" height="60" as="geometry" />
        </mxCell>
        <mxCell id="SLpWsWOZ-Yg8wPwdnWfF-4" value="Association technique" style="shape=umlActor;verticalLabelPosition=bottom;verticalAlign=top;html=1;outlineConnect=0;" vertex="1" parent="WIyWlLk6GJQsqaUBKTNV-1">
          <mxGeometry x="110" y="980" width="30" height="60" as="geometry" />
        </mxCell>
        <mxCell id="wr5d51Yl4XAAvzai9b7U-2" value="Service de mail" style="shape=umlActor;verticalLabelPosition=bottom;verticalAlign=top;html=1;outlineConnect=0;" vertex="1" parent="WIyWlLk6GJQsqaUBKTNV-1">
          <mxGeometry x="820" y="595" width="30" height="60" as="geometry" />
        </mxCell>
        <mxCell id="eJs-L2XnjaH23RuSow4--0" value="Base de données" style="shape=umlActor;verticalLabelPosition=bottom;verticalAlign=top;html=1;outlineConnect=0;" vertex="1" parent="WIyWlLk6GJQsqaUBKTNV-1">
          <mxGeometry x="1010" y="800" width="30" height="60" as="geometry" />
        </mxCell>
        <mxCell id="eJs-L2XnjaH23RuSow4--23" value="" style="endArrow=none;html=1;rounded=0;entryX=0;entryY=0.5;entryDx=0;entryDy=0;" edge="1" parent="WIyWlLk6GJQsqaUBKTNV-1" target="YS-Tequ_tSHetrGVFUUf-0">
          <mxGeometry width="50" height="50" relative="1" as="geometry">
            <mxPoint x="130" y="660" as="sourcePoint" />
            <mxPoint x="440" y="840" as="targetPoint" />
          </mxGeometry>
        </mxCell>
        <mxCell id="eJs-L2XnjaH23RuSow4--25" value="" style="endArrow=none;html=1;rounded=0;entryX=0;entryY=0.5;entryDx=0;entryDy=0;" edge="1" parent="WIyWlLk6GJQsqaUBKTNV-1" target="YS-Tequ_tSHetrGVFUUf-3">
          <mxGeometry width="50" height="50" relative="1" as="geometry">
            <mxPoint x="130" y="660" as="sourcePoint" />
            <mxPoint x="310" y="600" as="targetPoint" />
          </mxGeometry>
        </mxCell>
        <mxCell id="eJs-L2XnjaH23RuSow4--26" value="" style="endArrow=none;html=1;rounded=0;entryX=0;entryY=0.5;entryDx=0;entryDy=0;" edge="1" parent="WIyWlLk6GJQsqaUBKTNV-1" target="wr5d51Yl4XAAvzai9b7U-6">
          <mxGeometry width="50" height="50" relative="1" as="geometry">
            <mxPoint x="130" y="660" as="sourcePoint" />
            <mxPoint x="320" y="560" as="targetPoint" />
          </mxGeometry>
        </mxCell>
        <mxCell id="eJs-L2XnjaH23RuSow4--28" value="" style="endArrow=none;html=1;rounded=0;entryX=0;entryY=0.5;entryDx=0;entryDy=0;" edge="1" parent="WIyWlLk6GJQsqaUBKTNV-1" target="wr5d51Yl4XAAvzai9b7U-6">
          <mxGeometry width="50" height="50" relative="1" as="geometry">
            <mxPoint x="140" y="1020" as="sourcePoint" />
            <mxPoint x="330" y="650" as="targetPoint" />
          </mxGeometry>
        </mxCell>
        <mxCell id="eJs-L2XnjaH23RuSow4--30" value="" style="endArrow=none;html=1;rounded=0;entryX=0;entryY=0.5;entryDx=0;entryDy=0;" edge="1" parent="WIyWlLk6GJQsqaUBKTNV-1" target="YS-Tequ_tSHetrGVFUUf-19">
          <mxGeometry width="50" height="50" relative="1" as="geometry">
            <mxPoint x="140" y="1020" as="sourcePoint" />
            <mxPoint x="344" y="920" as="targetPoint" />
          </mxGeometry>
        </mxCell>
        <mxCell id="eJs-L2XnjaH23RuSow4--32" value="" style="endArrow=none;html=1;rounded=0;exitX=1;exitY=0;exitDx=0;exitDy=0;" edge="1" parent="WIyWlLk6GJQsqaUBKTNV-1" source="bsUH4eUVU3nkwlBXj7Sr-1">
          <mxGeometry width="50" height="50" relative="1" as="geometry">
            <mxPoint x="401.5" y="720" as="sourcePoint" />
            <mxPoint x="820" y="630" as="targetPoint" />
          </mxGeometry>
        </mxCell>
        <mxCell id="eJs-L2XnjaH23RuSow4--37" value="" style="endArrow=none;html=1;rounded=0;exitX=1;exitY=0.5;exitDx=0;exitDy=0;" edge="1" parent="WIyWlLk6GJQsqaUBKTNV-1" source="wr5d51Yl4XAAvzai9b7U-6">
          <mxGeometry width="50" height="50" relative="1" as="geometry">
            <mxPoint x="390" y="920" as="sourcePoint" />
            <mxPoint x="1000" y="830" as="targetPoint" />
          </mxGeometry>
        </mxCell>
        <mxCell id="eJs-L2XnjaH23RuSow4--41" value="" style="endArrow=none;html=1;rounded=0;exitX=1;exitY=0.5;exitDx=0;exitDy=0;" edge="1" parent="WIyWlLk6GJQsqaUBKTNV-1" source="wr5d51Yl4XAAvzai9b7U-3">
          <mxGeometry width="50" height="50" relative="1" as="geometry">
            <mxPoint x="460" y="880" as="sourcePoint" />
            <mxPoint x="1000" y="830" as="targetPoint" />
          </mxGeometry>
        </mxCell>
        <mxCell id="eJs-L2XnjaH23RuSow4--42" value="" style="endArrow=none;html=1;rounded=0;exitX=1;exitY=0.5;exitDx=0;exitDy=0;" edge="1" parent="WIyWlLk6GJQsqaUBKTNV-1" source="eJs-L2XnjaH23RuSow4--20">
          <mxGeometry width="50" height="50" relative="1" as="geometry">
            <mxPoint x="460" y="960" as="sourcePoint" />
            <mxPoint x="1000" y="830" as="targetPoint" />
          </mxGeometry>
        </mxCell>
        <mxCell id="CU6-SkCd78zjXDENYMAe-2" value="" style="endArrow=none;html=1;rounded=0;entryX=1;entryY=0.5;entryDx=0;entryDy=0;" edge="1" parent="WIyWlLk6GJQsqaUBKTNV-1" target="CU6-SkCd78zjXDENYMAe-0">
          <mxGeometry width="50" height="50" relative="1" as="geometry">
            <mxPoint x="820" y="630" as="sourcePoint" />
            <mxPoint x="550" y="460" as="targetPoint" />
          </mxGeometry>
        </mxCell>
        <mxCell id="CU6-SkCd78zjXDENYMAe-3" value="" style="endArrow=none;html=1;rounded=0;entryX=1;entryY=0.5;entryDx=0;entryDy=0;" edge="1" parent="WIyWlLk6GJQsqaUBKTNV-1" target="eJs-L2XnjaH23RuSow4--59">
          <mxGeometry width="50" height="50" relative="1" as="geometry">
            <mxPoint x="820" y="630" as="sourcePoint" />
            <mxPoint x="560" y="370" as="targetPoint" />
          </mxGeometry>
        </mxCell>
        <mxCell id="YLnWWPRhelkXHmFUMjlO-1" value="" style="endArrow=none;html=1;rounded=0;exitX=0;exitY=0.5;exitDx=0;exitDy=0;" edge="1" parent="WIyWlLk6GJQsqaUBKTNV-1" source="YLnWWPRhelkXHmFUMjlO-0">
          <mxGeometry width="50" height="50" relative="1" as="geometry">
            <mxPoint x="510" y="670" as="sourcePoint" />
            <mxPoint x="130" y="660" as="targetPoint" />
          </mxGeometry>
        </mxCell>
        <mxCell id="YLnWWPRhelkXHmFUMjlO-2" value="" style="endArrow=none;html=1;rounded=0;entryX=1;entryY=0.5;entryDx=0;entryDy=0;" edge="1" parent="WIyWlLk6GJQsqaUBKTNV-1" target="YLnWWPRhelkXHmFUMjlO-0">
          <mxGeometry width="50" height="50" relative="1" as="geometry">
            <mxPoint x="820" y="630" as="sourcePoint" />
            <mxPoint x="140" y="670" as="targetPoint" />
          </mxGeometry>
        </mxCell>
        <mxCell id="YLnWWPRhelkXHmFUMjlO-4" value="" style="endArrow=none;html=1;rounded=0;entryX=0;entryY=0.5;entryDx=0;entryDy=0;" edge="1" parent="WIyWlLk6GJQsqaUBKTNV-1" target="YS-Tequ_tSHetrGVFUUf-3">
          <mxGeometry width="50" height="50" relative="1" as="geometry">
            <mxPoint x="140" y="1020" as="sourcePoint" />
            <mxPoint x="730" y="790" as="targetPoint" />
          </mxGeometry>
        </mxCell>
        <mxCell id="EpKC4rCdLdDkAquS_WCu-0" value="" style="endArrow=none;html=1;rounded=0;entryX=1;entryY=0.5;entryDx=0;entryDy=0;" edge="1" parent="WIyWlLk6GJQsqaUBKTNV-1" target="CU6-SkCd78zjXDENYMAe-0">
          <mxGeometry width="50" height="50" relative="1" as="geometry">
            <mxPoint x="1000" y="830" as="sourcePoint" />
            <mxPoint x="750" y="185" as="targetPoint" />
          </mxGeometry>
        </mxCell>
      </root>
    </mxGraphModel>
  </diagram>
  <diagram id="oPZ9lVZZ9tXoNRFQJwmo" name="CU_Simplifier">
    <mxGraphModel grid="1" page="1" gridSize="10" guides="1" tooltips="1" connect="1" arrows="1" fold="1" pageScale="1" pageWidth="827" pageHeight="1169" math="0" shadow="0">
      <root>
        <mxCell id="0" />
        <mxCell id="1" parent="0" />
        <mxCell id="VureaDolhutEFoOsTPIH-63" value="Application" style="swimlane;whiteSpace=wrap;html=1;" vertex="1" parent="1">
          <mxGeometry x="290" y="120" width="500" height="990" as="geometry" />
        </mxCell>
        <mxCell id="VureaDolhutEFoOsTPIH-64" value="Créer concert" style="ellipse;whiteSpace=wrap;html=1;" vertex="1" parent="VureaDolhutEFoOsTPIH-63">
          <mxGeometry x="37" y="475" width="80" height="60" as="geometry" />
        </mxCell>
        <mxCell id="VureaDolhutEFoOsTPIH-67" style="rounded=0;orthogonalLoop=1;jettySize=auto;html=1;endArrow=none;endFill=0;" edge="1" parent="VureaDolhutEFoOsTPIH-63" source="VureaDolhutEFoOsTPIH-68">
          <mxGeometry relative="1" as="geometry">
            <mxPoint x="723.3333333333334" y="720" as="targetPoint" />
          </mxGeometry>
        </mxCell>
        <mxCell id="VureaDolhutEFoOsTPIH-68" value="Faire l&#39;inventaire des besoins" style="ellipse;whiteSpace=wrap;html=1;" vertex="1" parent="VureaDolhutEFoOsTPIH-63">
          <mxGeometry x="40" y="870" width="100" height="70" as="geometry" />
        </mxCell>
        <mxCell id="VureaDolhutEFoOsTPIH-69" value="Se connecter" style="ellipse;whiteSpace=wrap;html=1;" vertex="1" parent="VureaDolhutEFoOsTPIH-63">
          <mxGeometry x="110" y="560" width="100" height="60" as="geometry" />
        </mxCell>
        <mxCell id="VureaDolhutEFoOsTPIH-74" value="Editer une liste des besoins pour un concert" style="ellipse;whiteSpace=wrap;html=1;" vertex="1" parent="VureaDolhutEFoOsTPIH-63">
          <mxGeometry x="230" y="70" width="100" height="60" as="geometry" />
        </mxCell>
        <mxCell id="VureaDolhutEFoOsTPIH-75" value="Consulter ses formulaires de concert" style="ellipse;whiteSpace=wrap;html=1;" vertex="1" parent="VureaDolhutEFoOsTPIH-63">
          <mxGeometry x="86" y="160" width="100" height="60" as="geometry" />
        </mxCell>
        <mxCell id="VureaDolhutEFoOsTPIH-82" value="Artiste" style="shape=umlActor;verticalLabelPosition=bottom;verticalAlign=top;html=1;outlineConnect=0;" vertex="1" parent="VureaDolhutEFoOsTPIH-63">
          <mxGeometry x="-143" y="150" width="30" height="60" as="geometry" />
        </mxCell>
        <mxCell id="VureaDolhutEFoOsTPIH-83" value="" style="endArrow=none;html=1;rounded=0;entryX=0;entryY=0.5;entryDx=0;entryDy=0;" edge="1" parent="VureaDolhutEFoOsTPIH-63" target="VureaDolhutEFoOsTPIH-74">
          <mxGeometry width="50" height="50" relative="1" as="geometry">
            <mxPoint x="-113" y="190" as="sourcePoint" />
            <mxPoint x="67" y="177.5" as="targetPoint" />
          </mxGeometry>
        </mxCell>
        <mxCell id="VureaDolhutEFoOsTPIH-84" value="" style="endArrow=none;html=1;rounded=0;entryX=0;entryY=0.5;entryDx=0;entryDy=0;" edge="1" parent="VureaDolhutEFoOsTPIH-63" target="VureaDolhutEFoOsTPIH-75">
          <mxGeometry width="50" height="50" relative="1" as="geometry">
            <mxPoint x="-113" y="190" as="sourcePoint" />
            <mxPoint x="77" y="15" as="targetPoint" />
          </mxGeometry>
        </mxCell>
        <mxCell id="VureaDolhutEFoOsTPIH-86" value="Envoyer le formulaire" style="ellipse;whiteSpace=wrap;html=1;" vertex="1" parent="VureaDolhutEFoOsTPIH-63">
          <mxGeometry x="87" y="380" width="106" height="50" as="geometry" />
        </mxCell>
        <mxCell id="VureaDolhutEFoOsTPIH-87" value="Gérer fiches" style="ellipse;whiteSpace=wrap;html=1;" vertex="1" parent="VureaDolhutEFoOsTPIH-63">
          <mxGeometry x="71" y="680" width="106" height="50" as="geometry" />
        </mxCell>
        <mxCell id="VureaDolhutEFoOsTPIH-88" style="rounded=0;orthogonalLoop=1;jettySize=auto;html=1;exitX=1;exitY=0.5;exitDx=0;exitDy=0;endArrow=none;endFill=0;" edge="1" parent="VureaDolhutEFoOsTPIH-63" source="VureaDolhutEFoOsTPIH-87">
          <mxGeometry relative="1" as="geometry">
            <mxPoint x="720" y="720" as="targetPoint" />
            <mxPoint x="489.99999999999864" y="725" as="sourcePoint" />
          </mxGeometry>
        </mxCell>
        <mxCell id="YkkzoxUT0TE90k_uogLM-1" value="" style="endArrow=none;html=1;rounded=0;entryX=1;entryY=1;entryDx=0;entryDy=0;" edge="1" parent="VureaDolhutEFoOsTPIH-63" target="VureaDolhutEFoOsTPIH-75">
          <mxGeometry width="50" height="50" relative="1" as="geometry">
            <mxPoint x="720" y="720" as="sourcePoint" />
            <mxPoint x="170" y="210" as="targetPoint" />
          </mxGeometry>
        </mxCell>
        <mxCell id="YkkzoxUT0TE90k_uogLM-2" value="" style="endArrow=none;html=1;rounded=0;entryX=1;entryY=0.5;entryDx=0;entryDy=0;" edge="1" parent="VureaDolhutEFoOsTPIH-63" target="VureaDolhutEFoOsTPIH-74">
          <mxGeometry width="50" height="50" relative="1" as="geometry">
            <mxPoint x="720" y="720" as="sourcePoint" />
            <mxPoint x="186" y="110" as="targetPoint" />
          </mxGeometry>
        </mxCell>
        <mxCell id="VureaDolhutEFoOsTPIH-107" value="&lt;div&gt;Association&lt;/div&gt;bien-être" style="shape=umlActor;verticalLabelPosition=bottom;verticalAlign=top;html=1;outlineConnect=0;" vertex="1" parent="1">
          <mxGeometry x="110" y="630" width="30" height="60" as="geometry" />
        </mxCell>
        <mxCell id="VureaDolhutEFoOsTPIH-108" value="Association technique" style="shape=umlActor;verticalLabelPosition=bottom;verticalAlign=top;html=1;outlineConnect=0;" vertex="1" parent="1">
          <mxGeometry x="120" y="990" width="30" height="60" as="geometry" />
        </mxCell>
        <mxCell id="VureaDolhutEFoOsTPIH-109" value="Service de mail" style="shape=umlActor;verticalLabelPosition=bottom;verticalAlign=top;html=1;outlineConnect=0;" vertex="1" parent="1">
          <mxGeometry x="830" y="605" width="30" height="60" as="geometry" />
        </mxCell>
        <mxCell id="VureaDolhutEFoOsTPIH-110" value="Base de données" style="shape=umlActor;verticalLabelPosition=bottom;verticalAlign=top;html=1;outlineConnect=0;" vertex="1" parent="1">
          <mxGeometry x="1020" y="810" width="30" height="60" as="geometry" />
        </mxCell>
        <mxCell id="VureaDolhutEFoOsTPIH-111" value="" style="endArrow=none;html=1;rounded=0;entryX=0;entryY=0.5;entryDx=0;entryDy=0;" edge="1" parent="1" target="VureaDolhutEFoOsTPIH-64">
          <mxGeometry width="50" height="50" relative="1" as="geometry">
            <mxPoint x="140" y="670" as="sourcePoint" />
            <mxPoint x="450" y="850" as="targetPoint" />
          </mxGeometry>
        </mxCell>
        <mxCell id="VureaDolhutEFoOsTPIH-112" value="" style="endArrow=none;html=1;rounded=0;entryX=0;entryY=0.5;entryDx=0;entryDy=0;" edge="1" parent="1" target="VureaDolhutEFoOsTPIH-87">
          <mxGeometry width="50" height="50" relative="1" as="geometry">
            <mxPoint x="140" y="670" as="sourcePoint" />
            <mxPoint x="320" y="610" as="targetPoint" />
          </mxGeometry>
        </mxCell>
        <mxCell id="VureaDolhutEFoOsTPIH-113" value="" style="endArrow=none;html=1;rounded=0;entryX=0;entryY=0.5;entryDx=0;entryDy=0;" edge="1" parent="1" target="VureaDolhutEFoOsTPIH-69">
          <mxGeometry width="50" height="50" relative="1" as="geometry">
            <mxPoint x="140" y="670" as="sourcePoint" />
            <mxPoint x="330" y="570" as="targetPoint" />
          </mxGeometry>
        </mxCell>
        <mxCell id="VureaDolhutEFoOsTPIH-114" value="" style="endArrow=none;html=1;rounded=0;entryX=0;entryY=0.5;entryDx=0;entryDy=0;" edge="1" parent="1" target="VureaDolhutEFoOsTPIH-69">
          <mxGeometry width="50" height="50" relative="1" as="geometry">
            <mxPoint x="150" y="1030" as="sourcePoint" />
            <mxPoint x="340" y="660" as="targetPoint" />
          </mxGeometry>
        </mxCell>
        <mxCell id="VureaDolhutEFoOsTPIH-115" value="" style="endArrow=none;html=1;rounded=0;entryX=0;entryY=0.5;entryDx=0;entryDy=0;" edge="1" parent="1" target="VureaDolhutEFoOsTPIH-68">
          <mxGeometry width="50" height="50" relative="1" as="geometry">
            <mxPoint x="150" y="1030" as="sourcePoint" />
            <mxPoint x="354" y="930" as="targetPoint" />
          </mxGeometry>
        </mxCell>
        <mxCell id="VureaDolhutEFoOsTPIH-116" value="" style="endArrow=none;html=1;rounded=0;exitX=1;exitY=0.5;exitDx=0;exitDy=0;" edge="1" parent="1" source="VureaDolhutEFoOsTPIH-87">
          <mxGeometry width="50" height="50" relative="1" as="geometry">
            <mxPoint x="763.8337226198485" y="827.2963911585987" as="sourcePoint" />
            <mxPoint x="830" y="640" as="targetPoint" />
          </mxGeometry>
        </mxCell>
        <mxCell id="VureaDolhutEFoOsTPIH-117" value="" style="endArrow=none;html=1;rounded=0;exitX=1;exitY=0.5;exitDx=0;exitDy=0;" edge="1" parent="1" source="VureaDolhutEFoOsTPIH-69">
          <mxGeometry width="50" height="50" relative="1" as="geometry">
            <mxPoint x="400" y="930" as="sourcePoint" />
            <mxPoint x="1010" y="840" as="targetPoint" />
          </mxGeometry>
        </mxCell>
        <mxCell id="VureaDolhutEFoOsTPIH-118" value="" style="endArrow=none;html=1;rounded=0;exitX=1;exitY=0.5;exitDx=0;exitDy=0;" edge="1" parent="1" source="VureaDolhutEFoOsTPIH-64">
          <mxGeometry width="50" height="50" relative="1" as="geometry">
            <mxPoint x="700" y="625" as="sourcePoint" />
            <mxPoint x="1010" y="840" as="targetPoint" />
          </mxGeometry>
        </mxCell>
        <mxCell id="VureaDolhutEFoOsTPIH-120" value="" style="endArrow=none;html=1;rounded=0;entryX=1;entryY=0.5;entryDx=0;entryDy=0;" edge="1" parent="1" target="VureaDolhutEFoOsTPIH-74">
          <mxGeometry width="50" height="50" relative="1" as="geometry">
            <mxPoint x="830" y="640" as="sourcePoint" />
            <mxPoint x="636" y="230" as="targetPoint" />
          </mxGeometry>
        </mxCell>
        <mxCell id="VureaDolhutEFoOsTPIH-121" value="" style="endArrow=none;html=1;rounded=0;entryX=1;entryY=0.5;entryDx=0;entryDy=0;" edge="1" parent="1" target="VureaDolhutEFoOsTPIH-75">
          <mxGeometry width="50" height="50" relative="1" as="geometry">
            <mxPoint x="830" y="640" as="sourcePoint" />
            <mxPoint x="570" y="380" as="targetPoint" />
          </mxGeometry>
        </mxCell>
        <mxCell id="VureaDolhutEFoOsTPIH-122" value="" style="endArrow=none;html=1;rounded=0;exitX=0;exitY=0.5;exitDx=0;exitDy=0;" edge="1" parent="1" source="VureaDolhutEFoOsTPIH-86">
          <mxGeometry width="50" height="50" relative="1" as="geometry">
            <mxPoint x="520" y="680" as="sourcePoint" />
            <mxPoint x="140" y="670" as="targetPoint" />
          </mxGeometry>
        </mxCell>
        <mxCell id="VureaDolhutEFoOsTPIH-123" value="" style="endArrow=none;html=1;rounded=0;entryX=1;entryY=0.5;entryDx=0;entryDy=0;" edge="1" parent="1" target="VureaDolhutEFoOsTPIH-86">
          <mxGeometry width="50" height="50" relative="1" as="geometry">
            <mxPoint x="830" y="640" as="sourcePoint" />
            <mxPoint x="150" y="680" as="targetPoint" />
          </mxGeometry>
        </mxCell>
        <mxCell id="VureaDolhutEFoOsTPIH-124" value="" style="endArrow=none;html=1;rounded=0;entryX=0;entryY=0.5;entryDx=0;entryDy=0;" edge="1" parent="1" target="VureaDolhutEFoOsTPIH-87">
          <mxGeometry width="50" height="50" relative="1" as="geometry">
            <mxPoint x="150" y="1030" as="sourcePoint" />
            <mxPoint x="740" y="800" as="targetPoint" />
          </mxGeometry>
        </mxCell>
      </root>
    </mxGraphModel>
  </diagram>
</mxfile>
